<svg xmlns="http://www.w3.org/2000/svg" width="226.32" height="145.54" viewBox="0 0 226.32 145.54"><defs><style>.a{fill:#b1b3b6;}.b{fill:#005d92;}</style></defs><title>Asset 1</title><path class="a" d="M112.53,31.13c7.29,1.13,21.8-4.49,32.49-13.22C156.56,8.49,157.59.53,147.46.81c-9.18.25-23.53,7.31-32.24,15.3-8.16,7.49-9.39,14-2.69,15"/><path class="a" d="M.61,101.8c1.49,2.79,5.29,3.08,8.54.44s4.6-7.43,2.66-10.16c-1.83-2.57-5.72-2.29-8.67.41s-4,6.67-2.53,9.31"/><path class="a" d="M61.69,30.61c3,.91,9.4-2.42,14.38-7.71,5.22-5.55,6.38-10.59,2.58-11-3.57-.37-10,3.59-14.44,8.61-4.22,4.81-5.34,9.23-2.52,10.09"/><path class="a" d="M12.76,69.12C14,71,17.16,70.21,19.92,67.27s4-7.05,2.46-8.77-4.72-.47-7.27,2.44-3.52,6.41-2.35,8.18"/><path class="a" d="M87.12,24.93c4.93.76,15-4,22.46-11.18,8-7.58,9.13-13.93,2.61-13.75-6,.17-16,5.93-22.42,12.55-6.05,6.28-7.24,11.67-2.65,12.38"/><path class="a" d="M4.21,84.38c1.27,2.38,4.65,2.2,7.59-.6s4.25-7.28,2.64-9.57-5-1.51-7.71,1.3S3,82.11,4.21,84.38"/><path class="a" d="M8.2,118.58c1.81,3.49,6.08,4.21,9.57,1.26,3.69-3.11,4.74-8.74,2.34-12.19-2.25-3.22-6.59-3.1-9.68-.05s-3.93,7.69-2.23,11"/><path class="a" d="M26.7,125.81c2.19,4.09,7.33,4.93,11.54,1.48,4.45-3.64,5.72-10.23,2.82-14.26-2.72-3.77-7.94-3.63-11.67-.06-3.56,3.41-4.74,9-2.69,12.84"/><path class="a" d="M120.84,55.71c8.76,2.53,26.2-1.8,39.06-10.56,14-9.55,15-19,2.36-20.11-11.3-1-28.45,5.28-38.63,13.39-9.47,7.55-10.75,15-2.79,17.29"/><path class="a" d="M41,41.68c2,1.18,6.49-1,10.14-5.11C55,32.32,56.09,28,53.64,27.11S46.73,29,43.41,32.9,39.15,40.56,41,41.68"/><path class="a" d="M25.33,54.3c1.44,1.47,5,.08,8-3.29s4.21-7.5,2.42-8.78-5.36.59-8.13,3.88-3.7,6.78-2.32,8.19"/><path class="b" d="M63.22,84.57A21.44,21.44,0,1,1,41.78,63.13,21.44,21.44,0,0,1,63.22,84.57"/><path class="b" d="M101.53,65l-9.82,36.08c-1.19,4.41-4.52,5-6.78,5s-5.65-.56-6.83-5L68.27,65a.72.72,0,0,1-.06-.34,1,1,0,0,1,1-1h4.63a1.2,1.2,0,0,1,1,.9c3,11.63,6,23.32,9,35,.17.73.4,1.07,1,1.07s.79-.34,1-1.07c1.07-4.23,8-30.72,9-35a1.2,1.2,0,0,1,1-.9h4.69a.92.92,0,0,1,1,1,.71.71,0,0,1-.06.34"/><path class="b" d="M116.39,69.83c-.17-.68-.4-1-1-1s-.85.28-1,1c-1.52,5.87-3.11,11.75-4.63,17.67H121c-1.52-5.93-3.11-11.8-4.63-17.67m14.74,35.86h-4.69a1.08,1.08,0,0,1-1-.9c-1-4-2.09-7.91-3.11-11.86H108.49c-1,4-2.09,7.91-3.11,11.86a1.13,1.13,0,0,1-1,.9H99.68a.91.91,0,0,1-1-.9v-.06a.42.42,0,0,1,.06-.28c3.16-11.58,6.27-23.15,9.43-34.67a18.36,18.36,0,0,1,1.13-3,6.35,6.35,0,0,1,6.1-3.44,6.22,6.22,0,0,1,6,3.44,11.83,11.83,0,0,1,1.13,2.94c3.16,11.58,6.27,23.21,9.49,34.78v.28a.91.91,0,0,1-1,.9"/><path class="b" d="M145.64,106.08a53.63,53.63,0,0,1-9.65-.85c-.79-.17-1.07-.45-1.07-1.07V101a1,1,0,0,1,1-1h.17c2.43.28,7.28.45,9.6.45,5.93,0,7.62-2.26,7.62-5.87,0-2.54-1.36-3.9-5.81-6.55l-6.44-3.9c-5.25-3.16-7.23-6.21-7.23-10.45,0-6.55,4.24-10.33,13.78-10.33a70.19,70.19,0,0,1,10.33.79,1,1,0,0,1,1,1v3.33a.92.92,0,0,1-1,1h-.11c-3.11-.28-6.95-.45-10.39-.45-5,0-7.12,1.36-7.12,4.69,0,2.26,1.41,3.61,5.37,5.93l6,3.44c6.38,3.67,8.36,7.06,8.36,11.52,0,5.59-3.16,11.52-14.4,11.52"/><path class="b" d="M179,69.83c-.17-.68-.4-1-1-1s-.85.28-1,1c-1.52,5.87-3.11,11.75-4.63,17.67H183.6c-1.52-5.93-3.11-11.8-4.63-17.67m14.74,35.86H189a1.08,1.08,0,0,1-1-.9c-1-4-2.09-7.91-3.1-11.86H171.07c-1,4-2.09,7.91-3.11,11.86a1.13,1.13,0,0,1-1,.9h-4.69a.91.91,0,0,1-1-.9v-.06c0-.11,0-.23.06-.28,3.16-11.58,6.27-23.15,9.43-34.67a18.43,18.43,0,0,1,1.13-3,6.35,6.35,0,0,1,6.1-3.44,6.22,6.22,0,0,1,6,3.44,11.87,11.87,0,0,1,1.13,2.94c3.16,11.58,6.27,23.21,9.49,34.78v.28a.91.91,0,0,1-1,.9"/><path class="b" d="M219.94,93.15c0-3.44-1.75-6.61-7.79-6.61h-7.91v14c1.58,0,3.67.17,5.25.17,7.11,0,10.45-1.69,10.45-6.72Zm-.23-18.46c0-4.69-3.56-6-10.62-6-1.64,0-3.5.11-4.86.17V81.63h7.91c5.93,0,7.57-2.88,7.57-6.1Zm-10.22,31.4a63.53,63.53,0,0,1-9.49-.51c-1.58-.28-2.26-.85-2.26-2.6V66.38c0-1.69.68-2.37,2.15-2.6a78.88,78.88,0,0,1,9.2-.45c9.6,0,16.94,2.6,16.94,11.12v1a9,9,0,0,1-5.59,8.69,9,9,0,0,1,5.87,8.92v1c0,9.21-7.17,12-16.83,12"/><path class="b" d="M76,120l-2.48,8.76a1.43,1.43,0,0,1-2.75,0L68.33,120a.16.16,0,0,1,0-.08.23.23,0,0,1,.24-.23h.78a.27.27,0,0,1,.24.2l2.34,8.58c.05.19.12.28.27.28s.2-.09.26-.28l2.36-8.58a.26.26,0,0,1,.23-.2h.79a.22.22,0,0,1,.23.23.18.18,0,0,1,0,.08"/><path class="b" d="M80.22,129.73h-.74a.26.26,0,0,1-.24-.27V120a.24.24,0,0,1,.24-.26h.74a.24.24,0,0,1,.24.26v9.48a.26.26,0,0,1-.24.27"/><path class="b" d="M86.45,129.82a13.42,13.42,0,0,1-2.24-.19c-.23,0-.25-.09-.25-.24v-.54a.21.21,0,0,1,.23-.22h0c.62.05,1.6.08,2.22.08,1.62,0,2-.65,2-1.59,0-.67-.39-1-1.62-1.8l-1.31-.79c-1.24-.75-1.86-1.44-1.86-2.52,0-1.63,1.17-2.38,3.22-2.38a18,18,0,0,1,2.34.16c.14,0,.23.09.23.23v.58a.21.21,0,0,1-.23.21h0c-.59,0-1.54-.08-2.31-.08-1.39,0-2,.3-2,1.28,0,.63.44,1,1.47,1.63l1.24.74c1.56.93,2.11,1.67,2.11,2.75,0,1.29-.67,2.69-3.33,2.69"/><path class="b" d="M94,129.73h-.74a.26.26,0,0,1-.24-.27V120a.24.24,0,0,1,.24-.26H94a.24.24,0,0,1,.24.26v9.48a.26.26,0,0,1-.24.27"/><path class="b" d="M103.74,123.86c0-2.26-.92-3.12-2.4-3.12s-2.41.86-2.41,3.12v1.74c0,2.26.93,3.12,2.41,3.12s2.4-.86,2.4-3.12Zm-2.4,6c-2.11,0-3.65-1.24-3.65-4.23v-1.74c0-3,1.53-4.23,3.65-4.23s3.64,1.24,3.64,4.23v1.74c0,3-1.52,4.23-3.64,4.23"/><path class="b" d="M115,129.73h-.84a.45.45,0,0,1-.43-.21l-4.16-7.91s0,0,0,0,0,0,0,0v7.86a.25.25,0,0,1-.24.26h-.7c-.13,0-.24,0-.24-.16V120.1a.38.38,0,0,1,.39-.38h.74c.38,0,.44.07.55.27l4.13,7.86,0,0s0,0,0,0V120a.25.25,0,0,1,.24-.26h.71a.24.24,0,0,1,.24.26v9.36a.39.39,0,0,1-.39.39"/><path class="b" d="M128.41,121.77c0-.89-.63-1.24-1.56-1.24s-1.72.31-1.72,1.24v.11c0,.47.07.84,1.14,2l.13.15.46-.28c1.31-.81,1.55-1.15,1.55-1.89Zm-2.21,3.57c-1.08.67-1.39,1.09-1.39,1.91v.11c0,1.09,1,1.54,2.06,1.54a3,3,0,0,0,2-.69Zm5.14,4.39h-.93a.26.26,0,0,1-.21-.09l-.67-.73a4,4,0,0,1-2.65.92c-1.64,0-3.3-.63-3.3-2.46v-.11c0-1.12.58-1.79,1.94-2.65l-.09-.11c-1.27-1.45-1.4-2-1.4-2.61v-.11c0-1.43,1.09-2.14,2.83-2.14,1.49,0,2.68.71,2.68,2.14v.11c0,.9-.36,1.52-2.06,2.67l-.38.26,2.44,2.63a4.89,4.89,0,0,0,.52-2.37v-.19a.19.19,0,0,1,.22-.21h.58c.15,0,.23.07.23.21v.19a5.53,5.53,0,0,1-.85,3.1l1.2,1.28a.21.21,0,0,1,.07.15.15.15,0,0,1-.15.15"/><path class="b" d="M141.8,129.82a13.41,13.41,0,0,1-2.24-.19c-.23,0-.25-.09-.25-.24v-.54a.21.21,0,0,1,.23-.22h0c.62.05,1.6.08,2.22.08,1.62,0,2-.65,2-1.59,0-.67-.39-1-1.62-1.8l-1.31-.79c-1.24-.75-1.86-1.44-1.86-2.52,0-1.63,1.17-2.38,3.22-2.38a18,18,0,0,1,2.34.16c.13,0,.23.09.23.23v.58a.21.21,0,0,1-.23.21h0c-.59,0-1.54-.08-2.31-.08-1.39,0-2,.3-2,1.28,0,.63.44,1,1.47,1.63l1.24.74c1.56.93,2.11,1.67,2.11,2.75,0,1.29-.67,2.69-3.33,2.69"/><path class="b" d="M154.66,120.77H152v8.69a.26.26,0,0,1-.24.27H151a.26.26,0,0,1-.24-.27v-8.69h-2.63c-.15,0-.27-.07-.27-.22V120a.26.26,0,0,1,.27-.24h6.48a.24.24,0,0,1,.25.24v.59c0,.14-.11.22-.25.22"/><path class="b" d="M163.27,122.52c0-1.35-.87-1.79-2.56-1.79-.42,0-1.16,0-1.48,0v3.69l1.48,0c1.66,0,2.56-.42,2.56-1.87Zm1.41,7.2h-.86c-.16,0-.24,0-.35-.17l-2.41-4h-.35c-.44,0-.77,0-1.48,0v4a.26.26,0,0,1-.24.27h-.73a.26.26,0,0,1-.24-.27V120c0-.19.08-.27.32-.3.58-.07,1.59-.11,2.37-.11,2.13,0,3.77.71,3.77,2.9v.09a2.65,2.65,0,0,1-2.11,2.72l2.45,4.09a.22.22,0,0,1,0,.12.17.17,0,0,1-.18.17"/><path class="b" d="M171.8,120.93c0-.15-.12-.24-.26-.24s-.23.09-.27.24L170,125.36h3Zm3.38,8.79h-.79a.24.24,0,0,1-.23-.2l-.87-3.1h-3.49l-.86,3.1a.27.27,0,0,1-.24.2h-.8a.22.22,0,0,1-.23-.21.22.22,0,0,1,0-.09l2.49-8.77a1.33,1.33,0,0,1,1.37-1,1.31,1.31,0,0,1,1.36,1l2.49,8.78a.23.23,0,0,1,0,.09.21.21,0,0,1-.23.21"/><path class="b" d="M183.7,120.77h-2.63v8.69a.26.26,0,0,1-.24.27h-.74a.26.26,0,0,1-.24-.27v-8.69h-2.63c-.15,0-.27-.07-.27-.22V120a.26.26,0,0,1,.27-.24h6.48a.24.24,0,0,1,.26.24v.59c0,.14-.11.22-.26.22"/><path class="b" d="M192.44,129.75c-.51.05-1.83.07-2.63.07-1.88,0-2.87-.71-2.87-2.5v-5.18c0-1.79,1-2.5,2.87-2.5.8,0,2.06,0,2.63.08a.19.19,0,0,1,.14.19v.67a.15.15,0,0,1-.15.16h-2.6c-1.43,0-1.65.38-1.65,1.4V124h4.13a.27.27,0,0,1,.27.27v.51a.27.27,0,0,1-.27.27h-4.13v2.26c0,1,.23,1.4,1.65,1.4h2.6a.14.14,0,0,1,.15.16v.69a.19.19,0,0,1-.14.19"/><path class="b" d="M201.84,129.62a15.47,15.47,0,0,1-2.68.2c-1.68,0-3.49-1.1-3.49-4.19v-1.8c0-3.27,1.88-4.2,3.61-4.2a15.73,15.73,0,0,1,2.56.19c.12,0,.23.07.23.2v.67c0,.09-.05.13-.17.13h-.05c-.8-.07-1.41-.09-2.56-.09s-2.38.67-2.38,3.1v1.8c0,2.22,1,3.1,2.26,3.1.82,0,1.37-.05,1.7-.08V124.8a.25.25,0,0,1,.24-.27h.73a.27.27,0,0,1,.25.27v4.53a.29.29,0,0,1-.24.3"/><path class="b" d="M206.63,129.73h-.74a.26.26,0,0,1-.24-.27V120a.24.24,0,0,1,.24-.26h.74a.25.25,0,0,1,.24.26v9.48a.26.26,0,0,1-.24.27"/><path class="b" d="M216,129.75c-.51.05-1.83.07-2.63.07-1.89,0-2.87-.71-2.87-2.5v-5.18c0-1.79,1-2.5,2.87-2.5.8,0,2.06,0,2.63.08a.19.19,0,0,1,.13.19v.67a.15.15,0,0,1-.15.16h-2.6c-1.43,0-1.66.38-1.66,1.4V124h4.13a.27.27,0,0,1,.27.27v.51a.27.27,0,0,1-.27.27h-4.13v2.26c0,1,.23,1.4,1.66,1.4H216a.14.14,0,0,1,.15.16v.69a.19.19,0,0,1-.13.19"/><path class="b" d="M221.78,129.82a13.4,13.4,0,0,1-2.24-.19c-.23,0-.26-.09-.26-.24v-.54a.21.21,0,0,1,.23-.22h0c.62.05,1.6.08,2.22.08,1.62,0,2-.65,2-1.59,0-.67-.39-1-1.62-1.8l-1.31-.79c-1.24-.75-1.86-1.44-1.86-2.52,0-1.63,1.17-2.38,3.22-2.38a18,18,0,0,1,2.34.16c.13,0,.23.09.23.23v.58a.21.21,0,0,1-.23.21h0c-.59,0-1.54-.08-2.31-.08-1.39,0-2,.3-2,1.28,0,.63.44,1,1.47,1.63l1.24.74c1.56.93,2.11,1.67,2.11,2.75,0,1.29-.67,2.69-3.33,2.69"/><path class="b" d="M72.39,136.65c0-.15-.12-.24-.26-.24s-.23.09-.27.24l-1.22,4.43h3Zm3.38,8.79H75a.24.24,0,0,1-.23-.2l-.87-3.1H70.38l-.86,3.1a.27.27,0,0,1-.24.2h-.79a.22.22,0,0,1-.23-.22.23.23,0,0,1,0-.09l2.49-8.77a1.33,1.33,0,0,1,1.37-1,1.31,1.31,0,0,1,1.36,1L76,145.14a.22.22,0,0,1,0,.09.21.21,0,0,1-.23.22"/><path class="b" d="M83.18,138.24c0-1.35-.87-1.79-2.56-1.79-.42,0-1.16,0-1.48,0v3.69l1.48,0c1.66,0,2.56-.42,2.56-1.87Zm1.41,7.2h-.86c-.16,0-.24,0-.35-.18l-2.41-4h-.35c-.44,0-.77,0-1.48,0v4a.26.26,0,0,1-.24.27h-.73a.26.26,0,0,1-.24-.27v-9.42c0-.19.08-.27.32-.3.58-.07,1.59-.11,2.37-.11,2.13,0,3.77.71,3.77,2.9v.09a2.65,2.65,0,0,1-2.11,2.72l2.45,4.09a.21.21,0,0,1,0,.12.17.17,0,0,1-.18.18"/><path class="b" d="M92.49,139.57c0-2.26-.92-3.12-2.4-3.12s-2.41.86-2.41,3.12v1.74c0,2.26.93,3.12,2.41,3.12s2.4-.86,2.4-3.12Zm-2.4,6c-2.11,0-3.65-1.24-3.65-4.23v-1.74c0-3,1.54-4.23,3.65-4.23s3.64,1.24,3.64,4.23v1.74c0,3-1.52,4.23-3.64,4.23"/><path class="b" d="M99.37,145.54c-2.18,0-3.45-1.16-3.45-3.73V135.7a.25.25,0,0,1,.25-.25h.73a.26.26,0,0,1,.26.25v6.11c0,1.74.54,2.68,2.21,2.68s2.21-.93,2.21-2.68V135.7a.26.26,0,0,1,.26-.25h.73a.26.26,0,0,1,.25.25v6.11c0,2.57-1.27,3.73-3.45,3.73"/><path class="b" d="M111.9,145.45h-.83a.44.44,0,0,1-.43-.22l-4.16-7.9s0,0,0,0,0,0,0,0v7.86a.25.25,0,0,1-.24.26h-.7c-.13,0-.24,0-.24-.16v-9.47a.38.38,0,0,1,.39-.38h.74c.38,0,.44.07.55.27l4.13,7.86,0,0s0,0,0,0V135.7a.25.25,0,0,1,.24-.26h.71a.24.24,0,0,1,.24.26v9.36a.39.39,0,0,1-.39.39"/><path class="b" d="M120.34,139.53c0-2.44-1.24-3.14-2.85-3.14-.63,0-1.05,0-1.49,0v8c.43,0,.86,0,1.49,0,1.62,0,2.85-.71,2.85-3.14Zm-2.85,6a19.13,19.13,0,0,1-2.45-.13.31.31,0,0,1-.28-.34v-9.25a.31.31,0,0,1,.28-.34,19,19,0,0,1,2.45-.13c2.49,0,4.08,1.28,4.08,4.19v1.82c0,2.88-1.59,4.19-4.08,4.19"/><path class="b" d="M133.35,136.49h-2.63v8.68a.26.26,0,0,1-.24.27h-.74a.26.26,0,0,1-.24-.27v-8.68h-2.63c-.15,0-.27-.07-.27-.22v-.59a.26.26,0,0,1,.27-.24h6.48a.24.24,0,0,1,.26.24v.59c0,.14-.11.22-.26.22"/><path class="b" d="M142.37,145.45h-.69a.27.27,0,0,1-.27-.27V140.7h-4.6v4.47a.27.27,0,0,1-.27.27h-.69a.27.27,0,0,1-.27-.27v-9.47a.27.27,0,0,1,.27-.27h.69a.27.27,0,0,1,.27.27v3.91h4.6v-3.91a.27.27,0,0,1,.27-.27h.69a.27.27,0,0,1,.27.27v9.47a.27.27,0,0,1-.27.27"/><path class="b" d="M150.58,145.47c-.51.06-1.83.07-2.62.07-1.88,0-2.87-.71-2.87-2.5v-5.18c0-1.79,1-2.51,2.87-2.51.79,0,2.06,0,2.62.08a.19.19,0,0,1,.14.19v.67a.15.15,0,0,1-.15.16H148c-1.43,0-1.66.38-1.66,1.4v1.87h4.13a.27.27,0,0,1,.27.27v.51a.27.27,0,0,1-.27.27h-4.13V143c0,1,.23,1.4,1.66,1.4h2.6a.14.14,0,0,1,.15.16v.69a.19.19,0,0,1-.14.19"/><path class="b" d="M161.65,142.46c0-.89-.44-1.71-2-1.71h-2.07v3.7c.44,0,.93.05,1.4.05,1.67,0,2.71-.36,2.71-1.82Zm-.05-4.51c0-1.29-1.08-1.56-2.72-1.56-.46,0-1,0-1.33,0v3.34h2.07c1.56,0,2-.75,2-1.6Zm-2.65,7.59a15.76,15.76,0,0,1-2.19-.12c-.31,0-.44-.16-.44-.5v-9a.44.44,0,0,1,.43-.5,19.62,19.62,0,0,1,2.14-.11c2.14,0,3.95.57,3.95,2.6v.21a2.16,2.16,0,0,1-1.44,2.11,2.21,2.21,0,0,1,1.5,2.18v.23c0,2.26-1.83,2.86-3.93,2.86"/><path class="b" d="M168.51,136.65c0-.15-.12-.24-.26-.24s-.23.09-.27.24l-1.22,4.43h3Zm3.38,8.79h-.79a.24.24,0,0,1-.23-.2l-.87-3.1H166.5l-.86,3.1a.27.27,0,0,1-.24.2h-.79a.22.22,0,0,1-.23-.22.23.23,0,0,1,0-.09l2.49-8.77a1.33,1.33,0,0,1,1.37-1,1.31,1.31,0,0,1,1.36,1l2.49,8.78a.22.22,0,0,1,0,.09.21.21,0,0,1-.23.22"/><path class="b" d="M179.36,145.42a22.74,22.74,0,0,1-2.63.12c-1.44,0-2.87-.28-2.87-2.5v-7.33a.27.27,0,0,1,.27-.27h.69a.27.27,0,0,1,.27.27V143c0,1,.23,1.4,1.66,1.4h2.6a.14.14,0,0,1,.15.16v.63a.19.19,0,0,1-.13.19"/><path class="b" d="M185.82,136.49h-2.63v8.68a.26.26,0,0,1-.24.27h-.74a.26.26,0,0,1-.24-.27v-8.68h-2.63c-.15,0-.27-.07-.27-.22v-.59a.26.26,0,0,1,.27-.24h6.48a.24.24,0,0,1,.25.24v.59c0,.14-.11.22-.25.22"/><path class="b" d="M189.09,145.45h-.74a.26.26,0,0,1-.24-.27V135.7a.24.24,0,0,1,.24-.26h.74a.25.25,0,0,1,.24.26v9.48a.26.26,0,0,1-.24.27"/><path class="b" d="M197.42,145.36a10.54,10.54,0,0,1-2.24.18c-1.66,0-3.55-.89-3.55-4.16v-1.87c0-3.3,1.9-4.16,3.55-4.16a14.54,14.54,0,0,1,2.26.22c.12,0,.22.05.22.17v.69c0,.08,0,.15-.16.15h0c-.48,0-1.48-.12-2.26-.12-1.32,0-2.34.77-2.34,3.06v1.87c0,2.26,1,3.06,2.34,3.06.77,0,1.74-.07,2.22-.11h.05c.15,0,.21.07.21.22v.55c0,.16-.12.24-.27.27"/><path class="b" d="M205.37,145.54a13.38,13.38,0,0,1-2.23-.19c-.23,0-.26-.09-.26-.24v-.54a.21.21,0,0,1,.23-.22h0c.62.05,1.6.08,2.22.08,1.62,0,2-.65,2-1.59,0-.67-.39-1-1.62-1.8l-1.31-.79c-1.24-.75-1.86-1.44-1.86-2.52,0-1.63,1.17-2.38,3.22-2.38a18,18,0,0,1,2.34.16c.13,0,.23.09.23.23v.58a.21.21,0,0,1-.23.21h0c-.59,0-1.53-.08-2.31-.08-1.39,0-2,.3-2,1.28,0,.63.44,1,1.47,1.63l1.24.74c1.56.93,2.11,1.67,2.11,2.75,0,1.29-.67,2.69-3.33,2.69"/><path class="b" d="M216.26,145.47c-.51.06-1.83.07-2.62.07-1.89,0-2.87-.71-2.87-2.5v-5.18c0-1.79,1-2.51,2.87-2.51.79,0,2.06,0,2.63.08a.19.19,0,0,1,.13.19v.67a.15.15,0,0,1-.15.16h-2.6c-1.43,0-1.66.38-1.66,1.4v1.87h4.13a.27.27,0,0,1,.27.27v.51a.27.27,0,0,1-.27.27H212V143c0,1,.23,1.4,1.66,1.4h2.6a.14.14,0,0,1,.15.16v.69a.19.19,0,0,1-.13.19"/><path class="b" d="M222.3,136.65c0-.15-.12-.24-.26-.24s-.23.09-.27.24l-1.23,4.43h3Zm3.38,8.79h-.79a.24.24,0,0,1-.23-.2l-.87-3.1H220.3l-.86,3.1a.27.27,0,0,1-.24.2h-.79a.23.23,0,0,1-.21-.31l2.49-8.77a1.33,1.33,0,0,1,1.37-1,1.31,1.31,0,0,1,1.36,1l2.49,8.78a.23.23,0,0,1,0,.09.21.21,0,0,1-.23.22"/></svg>